- 
http://www.Speed.Cd 
       
http://www.Speed.Cd      fast  and The Hottest Private Tracker on the net

(((--Submit for invite!!--)))

Please Seed back to make the speed Faster!!!

------------------nfo--------------------------
-








































          
          
              
              
                    
                    
                    
                    

Bereavement.2011.DVDRip.Xvid.AC3-SiC

Poster:
[img]http://img828.imageshack.us/img828/3761/20942i.jpg[/img]

IMDB Link:
http://www.imdb.com/title/tt1507562/

Description:
An older, married man starts behaving strangely as he struggles with his own 
mortality and the difficult decision of whether or not to reveal his new secret 
to his family. 

MediaInfo:
General
Complete name                    : Bereavement.2011.DVDRip.Xvid.AC3-SiC.avi
Format                           : AVI
Format/Info                      : Audio Video Interleave
File size                        : 1.30 GiB
Duration                         : 1h 47mn
Overall bit rate                 : 1 727 Kbps

Video
ID                               : 0
Format                           : MPEG-4 Visual
Format profile                   : Advanced Simple@L5
Format settings, BVOP            : Yes
Format settings, QPel            : No
Format settings, GMC             : No warppoints
Format settings, Matrix          : Default (H.263)
Muxing mode                      : Packed bitstream
Codec ID                         : XVID
Codec ID/Hint                    : XviD
Duration                         : 1h 47mn
Bit rate                         : 1 335 Kbps
Width                            : 720 pixels
Height                           : 304 pixels
Display aspect ratio             : 2.35:1
Frame rate                       : 23.976 fps
Resolution                       : 8 bits
Colorimetry                      : 4:2:0
Scan type                        : Progressive
Bits/(Pixel*Frame)               : 0.254
Stream size                      : 1.00 GiB (77%)
Writing library                  : XviD 64

Audio
ID                               : 1
Format                           : AC-3
Format/Info                      : Audio Coding 3
Format_Settings_ModeExtension    : CM (complete main)
Codec ID                         : 2000
Duration                         : 1h 47mn
Bit rate mode                    : Constant
Bit rate                         : 384 Kbps
Channel(s)                       : 6 channels
Channel positions                : Front: L C R, Side: L R, LFE
Sampling rate                    : 48.0 KHz
Stream size                      : 295 MiB (22%)
Alignment                        : Aligned on interleaves
Interleave, duration             : 64 ms (1.53 video frames)
Interleave, preload duration     : 192 ms
Title                            : 6ch English

Screenshots:
[img]http://img535.imageshack.us/img535/4876/bereavement2011dvdripxv.png[/img]
[img]http://img827.imageshack.us/img827/8968/vlcsnap2011083104h04m16.png[/img]
[img]http://img836.imageshack.us/img836/9924/vlcsnap2011083104h05m10.png[/img]
[img]http://img844.imageshack.us/img844/9199/vlcsnap2011083104h04m26.png[/img]
[img]http://img20.imageshack.us/img20/5035/vlcsnap2011083103h41m33.png[/img]

Note :   N/A 

Source : DVDR-GRiLL Thanks!!!

Enjoy!

Respects to CaptainHomey, Cyanide, CM8, Rx, THC, ELEKTRI4KA, 
Killerhz, PA, YeFsTe, BoxSlots, MrRep and everyone in the struggle...